.
 
http://www.scenetime.com    -   SceneTime [ We been having it ] !!!


How come you press harder on a remote control when you know the battery is dead? so you better seed to get speed ;)

        Seed back for speed


...................................NFO:.................................................[img]http://img841.imageshack.us/img841/3592/2346411.jpg[/img]

[color=blue][size=5][b]Mayor.Cupcake.2011.DVDRip.XVID.AC3.HQ.Hive-CM8[/b][/size][/color]


[b]Thx Hive

CM8 Doing It Right The First Time :D

Source: DVD-R

Video: 720x400 @bitrate 1800 2pass
Audio: English AC3 5.1 @448
Sample: yes included

Encode:
the usual - added brightness,sharpness,rgb,denoise
enjoy[/b]


[url]http://www.imdb.com/title/tt1496798/[/url]


General
Complete name                    : Mayor.Cupcake.2011.DVDRip.XVID.AC3.HQ.Hive-CM8.avi
Format                           : AVI
Format/Info                      : Audio Video Interleave
File size                        : 1.35 GiB
Duration                         : 1h 25mn
Overall bit rate                 : 2 256 Kbps
Writing application              : Nandub v1.0rc2
Writing library                  : Nandub build 1853/release

Video
ID                               : 0
Format                           : MPEG-4 Visual
Format profile                   : Advanced Simple@L5
Format settings, BVOP            : 2
Format settings, QPel            : Yes
Format settings, GMC             : No warppoints
Format settings, Matrix          : Default (H.263)
Muxing mode                      : Packed bitstream
Codec ID                         : XVID
Codec ID/Hint                    : XviD
Duration                         : 1h 25mn
Bit rate                         : 1 798 Kbps
Width                            : 720 pixels
Height                           : 400 pixels
Display aspect ratio             : 16:9
Frame rate                       : 23.976 fps
Color space                      : YUV
Chroma subsampling               : 4:2:0
Bit depth                        : 8 bits
Scan type                        : Progressive
Compression mode                 : Lossy
Bits/(Pixel*Frame)               : 0.260
Stream size                      : 1.08 GiB (80%)
Writing library                  : XviD 1.2.1 (UTC 2008-12-04)

Audio
ID                               : 1
Format                           : AC-3
Format/Info                      : Audio Coding 3
Mode extension                   : CM (complete main)
Codec ID                         : 2000
Duration                         : 1h 25mn
Bit rate mode                    : Constant
Bit rate                         : 448 Kbps
Channel(s)                       : 6 channels
Channel positions                : Front: L C R, Side: L R, LFE
Sampling rate                    : 48.0 KHz
Bit depth                        : 16 bits
Compression mode                 : Lossy
Stream size                      : 275 MiB (20%)
Alignment                        : Split accross interleaves
Interleave, duration             : 42 ms (1.00 video frame)
Interleave, preload duration     : 500 ms


Lea Thompson	... 	Mary Maroni
Judd Nelson	... 	Donald Maroni
Dorian Harewood	... 	Albert Peach
Frankie Faison	... 	Lenny Davis
Zoey Deutch	... 	Lana Maroni


Mary Maroni is a loving wife, a caring mother of three, and Bridgestones finest cupcake baker. 
Her simple life becomes a lot more complicated when her daughter secretly nominates her to run for mayor. 
Before she can react, a unfortunate accident involving the incumbent mayor sends her straight into office. 
With the love and support of her family to guide her, it is up to Mary to prove that she has the right 
ingredients to clean up the town. All rise for Mayor Cupcake! 


[img]http://img641.imageshack.us/img641/1226/97523594.png[/img]
[img]http://img847.imageshack.us/img847/7348/mamaj.png[/img]
[img]http://img823.imageshack.us/img823/1735/mamamae.png[/img]
[img]http://img638.imageshack.us/img638/104/mamamama.png[/img]
[img]http://img691.imageshack.us/img691/6668/mamamamama.png[/img]
[img]http://img163.imageshack.us/img163/8052/mamamamamama.png[/img]
[img]http://img827.imageshack.us/img827/2999/mamamamamamama.png[/img]

cover:

[img]http://img52.imageshack.us/img52/6643/mayorcupcake2011movieco.jpg[/img]


video 

[url]http://www.imdb.com/video/screenplay/vi4008025113[/url]


Greetz

ViSiON,SANTi,3LT0N,MAGNET,THC,T0XiC,LKRG,FANTASIA-PLAY,FANTASIA-M,BHRG,IMAGiNE,WBZ,FLAWL3SS,NOVA,
D2U,Vik,Rapeseed,SAFC,goldadvance,MEMORY100,KaN1vE,Unevano,Pinnz,Wayne,cedrict wink,
Mr Hive and all P2P groups 
Great Work Guys :D

FYS


CM8@hushmail.com